<?xml version="1.0" standalone="no"?>
<!DOCTYPE svg PUBLIC "-//W3C//DTD SVG 20010904//EN"
 "http://www.w3.org/TR/2001/REC-SVG-20010904/DTD/svg10.dtd">
<svg version="1.0" xmlns="http://www.w3.org/2000/svg"
 width="271.000000pt" height="266.000000pt" viewBox="0 0 271.000000 266.000000"
 preserveAspectRatio="xMidYMid meet">

<g transform="translate(0.000000,266.000000) scale(0.100000,-0.100000)"
fill="#000000" stroke="none">
<path d="M1195 2574 c-433 -234 -828 -525 -1127 -831 l-66 -68 18 -120 c73
-466 217 -918 427 -1339 36 -72 67 -132 68 -134 7 -8 250 -43 402 -58 202 -20
649 -23 833 -5 131 13 404 48 431 57 21 6 183 340 252 519 115 295 194 581
248 895 l30 174 -113 114 c-206 207 -433 392 -698 567 -219 145 -506 305 -547
305 -10 0 -81 -34 -158 -76z m265 -14 c370 -186 761 -469 1097 -794 l113 -109
-6 -41 c-60 -408 -170 -793 -334 -1171 -48 -110 -137 -293 -158 -322 -4 -7
-68 -21 -142 -32 -460 -67 -911 -65 -1382 6 l-108 16 -69 141 c-206 419 -344
858 -414 1313 l-14 92 131 129 c300 294 652 548 1046 756 69 36 128 66 133 66
4 0 52 -23 107 -50z"/>
<path d="M1205 2497 c-358 -187 -709 -442 -1002 -729 -89 -86 -113 -116 -113
-137 0 -14 11 -92 25 -171 71 -407 202 -804 385 -1170 l69 -137 108 -17 c455
-68 881 -70 1321 -5 73 10 135 19 137 19 9 0 83 143 147 287 162 361 271 727
327 1094 l18 117 -106 105 c-310 304 -641 547 -1042 760 -58 32 -112 57 -120
57 -8 0 -77 -33 -154 -73z m258 2 c202 -102 462 -268 666 -427 132 -103 226
-186 362 -320 l116 -114 -14 -86 c-69 -443 -201 -858 -398 -1252 -50 -101 -69
-129 -88 -134 -65 -16 -361 -47 -543 -58 -280 -15 -647 6 -923 53 l-63 11 -74
152 c-125 254 -237 558 -303 821 -37 148 -78 358 -87 445 l-6 66 90 85 c333
318 648 546 1032 748 63 33 118 61 123 61 4 0 53 -23 110 -51z"/>
<path d="M1205 2226 c-21 -15 -25 -67 -5 -90 15 -19 70 -21 94 -3 25 19 13 59
-17 55 -11 -2 -22 -9 -25 -16 -2 -8 2 -10 14 -5 12 4 15 2 12 -8 -7 -20 -49
-17 -62 4 -19 29 5 53 50 49 33 -3 36 -1 25 12 -16 20 -61 21 -86 2z"/>
<path d="M1332 2183 l3 -58 48 -3 c28 -2 47 1 47 7 0 6 -16 11 -35 11 -28 0
-35 4 -35 20 0 16 7 20 30 20 17 0 30 5 30 10 0 6 -13 10 -30 10 -16 0 -30 5
-30 10 0 6 16 10 35 10 19 0 35 5 35 10 0 6 -23 10 -50 10 l-51 0 3 -57z"/>
<path d="M1466 2229 c-2 -8 -7 -35 -10 -61 -4 -38 -3 -48 9 -48 8 0 15 9 15
20 0 28 24 25 40 -5 18 -34 44 -35 28 -1 -8 20 -7 28 6 41 19 20 6 55 -22 55
-9 0 -27 3 -39 6 -15 4 -24 1 -27 -7z m71 -33 c-2 -6 -13 -12 -25 -14 -16 -3
-22 2 -22 16 0 15 5 18 25 14 14 -2 24 -10 22 -16z"/>
<path d="M1081 2213 c-21 -4 -23 -8 -16 -50 10 -71 14 -76 48 -69 16 3 36 6
43 6 8 0 14 6 14 14 0 11 -8 12 -35 6 -30 -7 -35 -5 -35 10 0 11 9 20 22 22
12 2 23 8 25 14 2 7 -8 9 -28 6 -24 -3 -30 -1 -27 9 2 8 17 15 31 17 15 2 27
8 27 13 0 9 -26 10 -69 2z"/>
<path d="M1602 2199 c-19 -51 -24 -99 -9 -99 16 0 39 100 26 114 -5 5 -12 -1
-17 -15z"/>
<path d="M992 2179 c3 -8 9 -25 13 -39 l8 -24 -36 27 c-44 33 -61 35 -53 4 11
-45 36 -97 47 -97 11 0 9 16 -6 54 -7 16 -4 16 33 -5 22 -13 44 -21 48 -17 10
10 -29 101 -46 106 -8 3 -11 -1 -8 -9z"/>
<path d="M1699 2143 c-26 -62 -25 -68 22 -82 45 -13 71 -2 68 28 -1 9 1 24 6
34 11 27 0 42 -40 54 l-36 12 -20 -46z m71 2 c11 -13 8 -15 -14 -15 -16 0 -26
5 -26 15 0 8 6 15 14 15 7 0 19 -7 26 -15z m-13 -58 c-2 -7 -13 -10 -23 -9
-25 5 -28 8 -20 27 5 13 10 14 26 5 12 -6 19 -17 17 -23z"/>
<path d="M803 2090 c-7 -35 -18 -46 -27 -25 -3 8 -12 15 -21 15 -12 0 -9 -11
15 -52 31 -56 47 -61 42 -15 -4 31 0 33 33 11 14 -9 32 -13 42 -9 15 5 10 10
-22 27 -22 11 -41 22 -43 23 -1 1 2 14 7 29 9 21 8 26 -4 26 -9 0 -18 -13 -22
-30z"/>
<path d="M1840 2084 c-57 -45 -60 -55 -19 -52 28 3 35 -2 47 -26 11 -22 16
-26 22 -15 13 22 16 122 5 125 -5 2 -30 -12 -55 -32z m40 -19 c0 -8 -7 -15
-15 -15 -26 0 -18 20 13 29 1 1 2 -6 2 -14z"/>
<path d="M1942 2026 c-46 -64 -43 -91 4 -38 l25 27 -3 -44 c-1 -27 2 -46 9
-48 15 -5 76 84 67 98 -4 7 -15 -2 -28 -22 l-21 -34 -3 45 c-2 25 -7 48 -11
53 -4 4 -22 -13 -39 -37z"/>
<path d="M700 2040 c0 -20 64 -100 73 -91 6 6 -3 27 -22 55 -30 43 -51 58 -51
36z"/>
<path d="M647 2014 c-4 -4 5 -21 20 -37 l28 -30 -25 7 c-67 18 -80 18 -80 4 0
-19 76 -92 84 -80 3 5 -3 17 -14 27 -31 28 -24 35 18 21 64 -23 71 -5 21 49
-24 25 -48 43 -52 39z"/>
<path d="M1239 2003 c-26 -4 -27 -7 -34 -93 l-7 -88 -46 -13 c-26 -7 -77 -26
-114 -42 l-67 -29 -38 30 c-21 16 -49 42 -62 56 -14 14 -30 26 -37 26 -32 0
-244 -196 -244 -225 0 -4 23 -35 50 -70 28 -35 50 -67 50 -72 0 -6 -16 -40
-35 -76 -19 -37 -39 -85 -46 -106 l-12 -40 -89 -7 c-48 -3 -91 -10 -94 -15
-10 -17 -20 -195 -14 -263 6 -80 6 -80 121 -91 l65 -6 13 -47 c6 -26 26 -77
43 -114 l30 -67 -56 -63 c-31 -35 -56 -67 -56 -72 0 -36 203 -244 223 -228 7
5 39 30 73 55 55 43 65 47 116 47 l56 0 41 71 c23 39 41 74 41 77 0 4 -20 18
-44 31 -63 33 -168 145 -205 219 -43 86 -61 162 -61 262 0 156 52 283 159 390
224 223 565 226 787 5 255 -251 219 -659 -75 -860 -40 -27 -76 -45 -85 -42
-13 5 -13 1 1 -31 8 -20 21 -49 29 -64 l14 -27 -77 -4 -78 -3 78 -2 c46 -1 77
-6 77 -13 0 -5 5 -7 12 -3 7 4 8 3 4 -5 -8 -12 -65 -9 -159 10 -37 7 -56 5
-84 -6 -19 -8 -37 -15 -39 -15 -12 0 -2 116 13 148 9 20 15 40 14 45 0 4 9 6
21 4 13 -2 18 -2 11 0 -18 7 -24 33 -9 39 8 3 23 1 35 -5 32 -18 75 -13 89 9
7 11 21 20 31 20 10 0 30 9 44 20 14 11 29 20 35 20 11 0 102 114 102 128 0 6
5 12 11 14 5 2 11 10 13 18 2 8 5 22 9 30 3 8 8 24 12 35 4 11 9 27 10 35 1 8
3 20 5 25 6 22 -1 32 -22 30 -28 -2 -33 -18 -12 -40 16 -16 16 -16 -1 -13 -14
2 -21 -6 -29 -31 -7 -26 -7 -36 2 -39 23 -7 12 -19 -13 -14 -18 3 -25 0 -25
-12 0 -9 7 -16 15 -16 8 0 15 -7 15 -16 0 -14 -2 -14 -22 0 -29 20 -36 20 -40
-1 -2 -10 6 -26 17 -36 11 -10 13 -15 5 -11 -26 14 -58 13 -64 -3 -4 -10 -2
-13 8 -10 8 3 16 -2 19 -14 4 -17 2 -19 -16 -13 -12 4 -25 11 -28 17 -4 6 -16
3 -30 -7 l-23 -16 26 0 c21 0 25 -4 21 -20 -5 -19 -6 -19 -36 2 -29 21 -30 21
-44 2 -12 -16 -12 -20 2 -30 19 -14 19 -28 0 -44 -12 -10 -15 -9 -15 8 0 11
-7 22 -15 26 -8 3 -14 10 -13 15 2 5 -1 9 -7 10 -23 2 -42 -11 -53 -37 -10
-23 -11 -23 -4 -2 3 14 6 73 5 131 l-3 105 35 13 c48 17 119 100 136 158 15
55 15 116 -1 158 -10 27 -7 32 62 102 l73 73 -58 57 -57 58 -80 -80 -79 -79
-52 13 c-43 11 -61 11 -106 1 l-54 -13 -80 79 -79 79 -57 -58 -58 -57 72 -72
73 -73 -14 -47 c-35 -115 34 -261 141 -300 l34 -13 -6 -85 c-4 -47 -9 -86 -10
-88 -2 -2 3 -20 12 -39 l14 -35 -26 6 c-109 27 -207 116 -263 238 -12 27 -24
48 -26 48 -2 0 -3 -13 -2 -29 1 -16 4 -27 7 -25 3 2 17 -17 30 -43 13 -25 48
-71 79 -102 46 -47 67 -61 128 -81 81 -27 111 -57 70 -68 l-23 -6 25 -6 c35
-8 60 -62 60 -132 0 -56 -6 -68 -26 -49 -15 15 -110 31 -180 31 l-65 0 15 28
c20 39 46 102 41 102 -2 0 -19 -30 -39 -66 -27 -49 -34 -69 -26 -82 5 -10 10
-12 10 -4 0 16 44 14 95 -4 l40 -14 -60 5 c-40 3 -53 1 -40 -5 18 -8 18 -9 2
-9 -10 -1 -27 4 -38 9 -15 9 -19 7 -20 -7 0 -16 -1 -16 -9 2 -9 20 -9 19 -15
-2 -4 -12 -14 -24 -24 -26 -9 -2 151 -3 354 -3 204 0 360 2 348 4 -14 2 -35
25 -61 70 -81 138 -78 145 8 19 29 -42 54 -77 57 -77 2 0 1 5 -2 10 -4 6 6 10
22 10 21 0 49 -17 101 -61 l72 -61 37 30 c44 35 150 144 181 186 l22 28 -59
68 -58 68 33 68 c18 38 38 89 44 115 l11 47 89 6 c102 8 96 1 105 121 7 93 -8
224 -27 236 -7 5 -43 9 -79 9 -37 0 -72 5 -81 13 -9 6 -23 35 -32 62 -9 28
-30 74 -46 104 l-30 54 56 63 c43 49 54 68 49 85 -8 23 -143 163 -190 196
l-30 21 -69 -58 -68 -58 -81 39 c-44 21 -95 41 -112 45 l-32 6 -9 91 -9 92
-45 7 c-48 7 -197 8 -241 1z m198 -857 c28 -1 32 -4 29 -26 -4 -39 -24 -68
-56 -85 -74 -38 -150 1 -165 85 -5 27 -3 31 13 26 11 -4 30 -2 43 4 13 5 42 7
64 4 22 -4 54 -7 72 -8z m343 -246 c0 -5 -2 -10 -4 -10 -3 0 -8 5 -11 10 -3 6
-1 10 4 10 6 0 11 -4 11 -10z m-410 -185 c0 -8 -7 -15 -15 -15 -16 0 -20 12
-8 23 11 12 23 8 23 -8z m91 -356 c-58 -4 -155 -4 -215 0 -97 6 -84 7 104 7
183 0 199 -1 111 -7z m146 -5 c-3 -3 -12 -4 -19 -1 -8 3 -5 6 6 6 11 1 17 -2
13 -5z"/>
<path d="M1348 1133 c7 -3 16 -2 19 1 4 3 -2 6 -13 5 -11 0 -14 -3 -6 -6z"/>
<path d="M1428 1113 c7 -3 16 -2 19 1 4 3 -2 6 -13 5 -11 0 -14 -3 -6 -6z"/>
<path d="M2075 1953 c-4 -21 -14 -46 -22 -56 -21 -22 -8 -35 14 -15 10 9 37
21 61 28 48 12 48 35 0 25 -28 -7 -29 -5 -26 21 5 42 -19 40 -27 -3z"/>
<path d="M548 1934 c-5 -4 -8 -25 -8 -47 0 -40 0 -40 -20 -22 -41 37 -32 3 10
-40 27 -28 48 -41 53 -36 6 6 3 16 -7 26 -27 27 -19 37 23 30 54 -9 63 12 9
22 -39 8 -44 12 -48 42 -3 18 -8 29 -12 25z"/>
<path d="M2146 1866 c-33 -27 -38 -36 -32 -59 3 -14 16 -31 27 -38 17 -9 28
-6 60 17 47 32 55 42 42 55 -6 6 -20 -3 -38 -21 -30 -31 -60 -39 -68 -17 -2 6
11 28 30 48 45 47 29 58 -21 15z"/>
<path d="M433 1797 c-13 -18 -23 -36 -23 -38 0 -3 21 -21 46 -39 l47 -33 28
34 c16 19 29 37 29 42 0 16 -19 6 -38 -20 -16 -21 -24 -25 -32 -17 -9 9 -8 18
5 37 9 14 12 28 7 31 -6 3 -17 -6 -27 -20 -11 -18 -20 -23 -27 -16 -7 7 -5 18
6 33 9 13 16 27 16 31 0 17 -16 6 -37 -25z"/>
<path d="M2226 1760 c-53 -59 -48 -77 15 -55 46 17 49 11 12 -27 -41 -42 -20
-54 50 -28 32 12 57 26 57 32 0 10 -25 7 -67 -9 -15 -5 -14 -2 6 20 24 26 23
64 -2 54 -6 -2 -23 -8 -37 -12 l-25 -7 23 24 c22 25 29 48 13 48 -5 0 -25 -18
-45 -40z"/>
<path d="M362 1691 c-22 -38 -19 -65 3 -34 11 14 16 13 58 -12 38 -22 47 -24
47 -11 0 9 -18 25 -39 36 -31 15 -38 24 -34 40 9 33 -12 23 -35 -19z"/>
<path d="M320 1612 c0 -10 85 -52 105 -52 30 0 13 18 -36 39 -56 23 -69 25
-69 13z"/>
<path d="M2295 1610 c-48 -6 -49 -7 -24 -17 31 -14 39 -29 32 -69 -5 -28 -5
-28 45 20 51 50 58 77 18 74 -11 0 -43 -4 -71 -8z m60 -30 c-3 -5 -13 -10 -21
-10 -8 0 -14 5 -14 10 0 6 9 10 21 10 11 0 17 -4 14 -10z"/>
<path d="M400 1532 c0 -5 -6 -16 -13 -26 -11 -16 -15 -16 -49 -1 -44 18 -61
19 -56 4 3 -10 91 -49 109 -49 4 0 10 11 13 24 3 13 9 31 12 40 3 9 1 16 -5
16 -6 0 -11 -4 -11 -8z"/>
<path d="M2363 1503 c-61 -18 -73 -39 -16 -28 l36 6 -26 -31 c-32 -37 -34 -50
-9 -50 34 0 114 32 104 42 -5 5 -20 5 -37 -2 -38 -14 -40 -8 -10 28 24 29 33
53 18 51 -5 0 -32 -8 -60 -16z"/>
<path d="M266 1436 c-31 -30 -33 -49 -6 -76 55 -55 152 10 103 68 -30 35 -68
38 -97 8z m68 -12 c23 -9 20 -51 -4 -59 -38 -12 -79 33 -53 58 8 9 36 9 57 1z"/>
<path d="M2367 1362 c-20 -22 -22 -63 -5 -80 7 -7 24 -12 39 -12 23 0 26 3 21
25 -5 27 -22 35 -22 10 0 -23 -18 -18 -26 7 -12 39 49 65 77 32 10 -12 10 -20
1 -34 -8 -14 -8 -21 -1 -26 14 -8 29 14 29 42 0 48 -79 73 -113 36z"/>
<path d="M243 1308 c-6 -7 -13 -27 -16 -45 -7 -37 3 -43 74 -43 49 0 69 16 27
22 -16 2 -22 10 -23 31 -1 40 -41 62 -62 35z m37 -38 c0 -11 -7 -20 -15 -20
-8 0 -15 9 -15 20 0 11 7 20 15 20 8 0 15 -9 15 -20z"/>
<path d="M2393 1243 c-51 -6 -39 -23 16 -23 54 0 81 7 81 21 0 9 -35 10 -97 2z"/>
<path d="M1010 899 c0 -5 5 -7 10 -4 6 3 10 8 10 11 0 2 -4 4 -10 4 -5 0 -10
-5 -10 -11z"/>
<path d="M1060 819 c0 -5 5 -7 10 -4 6 3 10 8 10 11 0 2 -4 4 -10 4 -5 0 -10
-5 -10 -11z"/>
<path d="M1168 583 c12 -2 32 -2 45 0 12 2 2 4 -23 4 -25 0 -35 -2 -22 -4z"/>
<path d="M920 250 c0 -40 4 -70 10 -70 6 0 10 11 10 25 0 20 5 25 25 25 49 0
55 63 8 81 -49 18 -53 14 -53 -61z m58 23 c-5 -26 -38 -29 -38 -4 0 15 6 21
21 21 14 0 19 -5 17 -17z"/>
<path d="M1040 300 c-39 -39 -14 -130 35 -130 51 0 77 104 33 134 -30 21 -44
20 -68 -4z m66 -34 c8 -35 -4 -66 -27 -66 -27 0 -45 41 -30 69 16 29 49 27 57
-3z"/>
<path d="M1250 251 c0 -41 4 -71 10 -71 6 0 10 28 10 64 0 36 -4 68 -10 71 -6
4 -10 -20 -10 -64z"/>
<path d="M1288 314 c-5 -4 0 -34 17 -111 9 -37 31 -26 42 20 10 42 15 39 27
-15 11 -50 33 -32 46 37 7 36 10 69 6 72 -7 7 -26 -41 -27 -70 -1 -13 -7 -2
-16 26 -17 58 -33 56 -49 -4 l-11 -44 -7 42 c-7 41 -18 58 -28 47z"/>
<path d="M1450 255 c-22 -66 -20 -96 4 -62 16 21 56 23 56 2 0 -8 6 -15 14
-15 12 0 10 13 -8 67 -12 37 -27 68 -33 70 -6 2 -21 -26 -33 -62z m38 -24
c-15 -5 -21 7 -13 26 7 17 8 17 15 -2 4 -11 3 -22 -2 -24z"/>
<path d="M1557 313 c-4 -3 -7 -35 -7 -70 0 -49 3 -63 15 -63 11 0 15 11 15 38
l1 37 20 -37 c11 -21 26 -38 35 -38 12 0 14 12 12 68 -3 72 -20 87 -28 25 l-5
-38 -14 32 c-15 36 -34 56 -44 46z"/>
<path d="M1692 304 c-33 -23 -32 -97 3 -120 37 -24 75 -6 75 36 0 25 -4 30
-25 30 -14 0 -25 -4 -25 -10 0 -5 7 -10 16 -10 21 0 12 -24 -11 -28 -22 -5
-35 14 -35 51 0 32 24 46 51 29 24 -16 29 -15 29 3 0 13 -29 35 -47 35 -5 0
-19 -7 -31 -16z"/>
<path d="M1796 313 c-3 -3 -6 -35 -6 -70 0 -49 3 -63 15 -63 12 0 15 14 15 64
0 60 -8 84 -24 69z"/>
<path d="M1150 245 l0 -65 40 0 c22 0 40 5 40 10 0 6 -13 10 -30 10 -30 0 -30
1 -30 55 0 30 -4 55 -10 55 -6 0 -10 -28 -10 -65z"/>
</g>
</svg>
